<?xml version="1.0" encoding="UTF-8" standalone="no"?>
<!-- Created with Inkscape (http://www.inkscape.org/) -->

<svg
   xmlns:dc="http://purl.org/dc/elements/1.1/"
   xmlns:cc="http://creativecommons.org/ns#"
   xmlns:rdf="http://www.w3.org/1999/02/22-rdf-syntax-ns#"
   xmlns:svg="http://www.w3.org/2000/svg"
   xmlns="http://www.w3.org/2000/svg"
   xmlns:sodipodi="http://sodipodi.sourceforge.net/DTD/sodipodi-0.dtd"
   xmlns:inkscape="http://www.inkscape.org/namespaces/inkscape"
   width="800"
   height="600"
   id="svg2"
   version="1.1"
   inkscape:version="0.48.1 r9760"
   sodipodi:docname="New document 1">
  <defs
     id="defs4" />
  <sodipodi:namedview
     id="base"
     pagecolor="#ffffff"
     bordercolor="#666666"
     borderopacity="1.0"
     inkscape:pageopacity="0.0"
     inkscape:pageshadow="2"
     inkscape:zoom="3.1561416"
     inkscape:cx="418.46666"
     inkscape:cy="273.60974"
     inkscape:document-units="px"
     inkscape:current-layer="layer1"
     showgrid="true"
     inkscape:window-width="1054"
     inkscape:window-height="724"
     inkscape:window-x="235"
     inkscape:window-y="0"
     inkscape:window-maximized="0">
    <inkscape:grid
       type="axonomgrid"
       id="grid2985"
       units="px"
       empspacing="6"
       visible="true"
       enabled="true"
       snapvisiblegridlinesonly="true"
       spacingy="3px" />
  </sodipodi:namedview>
  <metadata
     id="metadata7">
    <rdf:RDF>
      <cc:Work
         rdf:about="">
        <dc:format>image/svg+xml</dc:format>
        <dc:type
           rdf:resource="http://purl.org/dc/dcmitype/StillImage" />
        <dc:title></dc:title>
      </cc:Work>
    </rdf:RDF>
  </metadata>
  <g
     inkscape:label="Layer 1"
     inkscape:groupmode="layer"
     id="layer1"
     transform="translate(0,-452.36218)">
    <g
       transform="translate(-31.176913,54)"
       id="g3944">
      <path
         inkscape:connector-curvature="0"
         id="path3946"
         d="m 389.71143,737.36218 15.58846,9 -15.58846,9 -15.58846,-9 z"
         style="fill:#00c200;fill-opacity:1;stroke:none" />
      <path
         inkscape:connector-curvature="0"
         id="path3948"
         d="m 389.71143,755.36218 0,18 15.58846,-9 0,-18 z"
         style="fill:#766c22;fill-opacity:1;stroke:none" />
      <path
         inkscape:connector-curvature="0"
         id="path3950"
         d="m 374.12297,746.36218 0,18 15.58846,9 0,-18 z"
         style="fill:#767113;fill-opacity:0.83555555;stroke:none" />
      <path
         style="fill:#009b00;fill-opacity:1;stroke:none"
         d="m 389.71143,737.36218 15.58846,9 -15.58846,9 -15.58846,-9 z"
         id="path3952"
         inkscape:connector-curvature="0" />
      <path
         style="fill:#76612d;fill-opacity:1;stroke:none"
         d="m 389.71143,755.36218 0,18 15.58846,-9 0,-18 z"
         id="path3954"
         inkscape:connector-curvature="0" />
      <path
         style="fill:#766813;fill-opacity:1;stroke:none"
         d="m 374.12297,746.36218 0,18 15.58846,9 0,-18 z"
         id="path3956"
         inkscape:connector-curvature="0" />
    </g>
    <g
       id="g3897"
       transform="translate(15.588459,45)">
      <path
         style="fill:#00c200;fill-opacity:1;stroke:none"
         d="m 389.71143,737.36218 15.58846,9 -15.58846,9 -15.58846,-9 z"
         id="path3899"
         inkscape:connector-curvature="0" />
      <path
         style="fill:#766c22;fill-opacity:1;stroke:none"
         d="m 389.71143,755.36218 0,18 15.58846,-9 0,-18 z"
         id="path3901"
         inkscape:connector-curvature="0" />
      <path
         style="fill:#767113;fill-opacity:0.83555555;stroke:none"
         d="m 374.12297,746.36218 0,18 15.58846,9 0,-18 z"
         id="path3903"
         inkscape:connector-curvature="0" />
      <path
         inkscape:connector-curvature="0"
         id="path3905"
         d="m 389.71143,737.36218 15.58846,9 -15.58846,9 -15.58846,-9 z"
         style="fill:#009b00;fill-opacity:1;stroke:none" />
      <path
         inkscape:connector-curvature="0"
         id="path3907"
         d="m 389.71143,755.36218 0,18 15.58846,-9 0,-18 z"
         style="fill:#76612d;fill-opacity:1;stroke:none" />
      <path
         inkscape:connector-curvature="0"
         id="path3909"
         d="m 374.12297,746.36218 0,18 15.58846,9 0,-18 z"
         style="fill:#766813;fill-opacity:1;stroke:none" />
    </g>
    <g
       id="g3813"
       transform="translate(4.4348703e-6,18)">
      <path
         style="fill:#00c200;fill-opacity:1;stroke:none"
         d="m 389.71143,737.36218 15.58846,9 -15.58846,9 -15.58846,-9 z"
         id="path3815"
         inkscape:connector-curvature="0" />
      <path
         style="fill:#766c22;fill-opacity:1;stroke:none"
         d="m 389.71143,755.36218 0,18 15.58846,-9 0,-18 z"
         id="path3817"
         inkscape:connector-curvature="0" />
      <path
         style="fill:#767113;fill-opacity:0.83555555;stroke:none"
         d="m 374.12297,746.36218 0,18 15.58846,9 0,-18 z"
         id="path3819"
         inkscape:connector-curvature="0" />
      <path
         inkscape:connector-curvature="0"
         id="path3821"
         d="m 389.71143,737.36218 15.58846,9 -15.58846,9 -15.58846,-9 z"
         style="fill:#009b00;fill-opacity:1;stroke:none" />
      <path
         inkscape:connector-curvature="0"
         id="path3823"
         d="m 389.71143,755.36218 0,18 15.58846,-9 0,-18 z"
         style="fill:#76612d;fill-opacity:1;stroke:none" />
      <path
         inkscape:connector-curvature="0"
         id="path3825"
         d="m 374.12297,746.36218 0,18 15.58846,9 0,-18 z"
         style="fill:#766813;fill-opacity:1;stroke:none" />
    </g>
    <g
       id="g3805">
      <path
         inkscape:connector-curvature="0"
         id="path2987"
         d="m 389.71143,737.36218 15.58846,9 -15.58846,9 -15.58846,-9 z"
         style="fill:#00c200;fill-opacity:1;stroke:none" />
      <path
         inkscape:connector-curvature="0"
         id="path3757"
         d="m 389.71143,755.36218 0,18 15.58846,-9 0,-18 z"
         style="fill:#766c22;fill-opacity:1;stroke:none" />
      <path
         inkscape:connector-curvature="0"
         id="path3759"
         d="m 374.12297,746.36218 0,18 15.58846,9 0,-18 z"
         style="fill:#767113;fill-opacity:0.83555555;stroke:none" />
      <path
         style="fill:#009b00;fill-opacity:1;stroke:none"
         d="m 389.71143,737.36218 15.58846,9 -15.58846,9 -15.58846,-9 z"
         id="path3793"
         inkscape:connector-curvature="0" />
      <path
         style="fill:#76612d;fill-opacity:1;stroke:none"
         d="m 389.71143,755.36218 0,18 15.58846,-9 0,-18 z"
         id="path3795"
         inkscape:connector-curvature="0" />
      <path
         style="fill:#766813;fill-opacity:1;stroke:none"
         d="m 374.12297,746.36218 0,18 15.58846,9 0,-18 z"
         id="path3797"
         inkscape:connector-curvature="0" />
    </g>
    <g
       id="g3827"
       transform="translate(-15.588456,27)">
      <path
         style="fill:#00c200;fill-opacity:1;stroke:none"
         d="m 389.71143,737.36218 15.58846,9 -15.58846,9 -15.58846,-9 z"
         id="path3829"
         inkscape:connector-curvature="0" />
      <path
         style="fill:#766c22;fill-opacity:1;stroke:none"
         d="m 389.71143,755.36218 0,18 15.58846,-9 0,-18 z"
         id="path3831"
         inkscape:connector-curvature="0" />
      <path
         style="fill:#767113;fill-opacity:0.83555555;stroke:none"
         d="m 374.12297,746.36218 0,18 15.58846,9 0,-18 z"
         id="path3833"
         inkscape:connector-curvature="0" />
      <path
         inkscape:connector-curvature="0"
         id="path3835"
         d="m 389.71143,737.36218 15.58846,9 -15.58846,9 -15.58846,-9 z"
         style="fill:#009b00;fill-opacity:1;stroke:none" />
      <path
         inkscape:connector-curvature="0"
         id="path3837"
         d="m 389.71143,755.36218 0,18 15.58846,-9 0,-18 z"
         style="fill:#76612d;fill-opacity:1;stroke:none" />
      <path
         inkscape:connector-curvature="0"
         id="path3839"
         d="m 374.12297,746.36218 0,18 15.58846,9 0,-18 z"
         style="fill:#766813;fill-opacity:1;stroke:none" />
    </g>
    <g
       transform="translate(15.588459,27)"
       id="g3841">
      <path
         inkscape:connector-curvature="0"
         id="path3843"
         d="m 389.71143,737.36218 15.58846,9 -15.58846,9 -15.58846,-9 z"
         style="fill:#00c200;fill-opacity:1;stroke:none" />
      <path
         inkscape:connector-curvature="0"
         id="path3845"
         d="m 389.71143,755.36218 0,18 15.58846,-9 0,-18 z"
         style="fill:#766c22;fill-opacity:1;stroke:none" />
      <path
         inkscape:connector-curvature="0"
         id="path3847"
         d="m 374.12297,746.36218 0,18 15.58846,9 0,-18 z"
         style="fill:#767113;fill-opacity:0.83555555;stroke:none" />
      <path
         style="fill:#009b00;fill-opacity:1;stroke:none"
         d="m 389.71143,737.36218 15.58846,9 -15.58846,9 -15.58846,-9 z"
         id="path3849"
         inkscape:connector-curvature="0" />
      <path
         style="fill:#76612d;fill-opacity:1;stroke:none"
         d="m 389.71143,755.36218 0,18 15.58846,-9 0,-18 z"
         id="path3851"
         inkscape:connector-curvature="0" />
      <path
         style="fill:#766813;fill-opacity:1;stroke:none"
         d="m 374.12297,746.36218 0,18 15.58846,9 0,-18 z"
         id="path3853"
         inkscape:connector-curvature="0" />
    </g>
    <g
       id="g3869"
       transform="translate(1.7029887e-6,54)">
      <path
         style="fill:#00c200;fill-opacity:1;stroke:none"
         d="m 389.71143,737.36218 15.58846,9 -15.58846,9 -15.58846,-9 z"
         id="path3871"
         inkscape:connector-curvature="0" />
      <path
         style="fill:#766c22;fill-opacity:1;stroke:none"
         d="m 389.71143,755.36218 0,18 15.58846,-9 0,-18 z"
         id="path3873"
         inkscape:connector-curvature="0" />
      <path
         style="fill:#767113;fill-opacity:0.83555555;stroke:none"
         d="m 374.12297,746.36218 0,18 15.58846,9 0,-18 z"
         id="path3875"
         inkscape:connector-curvature="0" />
      <path
         inkscape:connector-curvature="0"
         id="path3877"
         d="m 389.71143,737.36218 15.58846,9 -15.58846,9 -15.58846,-9 z"
         style="fill:#009b00;fill-opacity:1;stroke:none" />
      <path
         inkscape:connector-curvature="0"
         id="path3879"
         d="m 389.71143,755.36218 0,18 15.58846,-9 0,-18 z"
         style="fill:#76612d;fill-opacity:1;stroke:none" />
      <path
         inkscape:connector-curvature="0"
         id="path3881"
         d="m 374.12297,746.36218 0,18 15.58846,9 0,-18 z"
         style="fill:#766813;fill-opacity:1;stroke:none" />
    </g>
    <g
       transform="translate(1.7029975e-6,36)"
       id="g3883">
      <path
         inkscape:connector-curvature="0"
         id="path3885"
         d="m 389.71143,737.36218 15.58846,9 -15.58846,9 -15.58846,-9 z"
         style="fill:#00c200;fill-opacity:1;stroke:none" />
      <path
         inkscape:connector-curvature="0"
         id="path3887"
         d="m 389.71143,755.36218 0,18 15.58846,-9 0,-18 z"
         style="fill:#766c22;fill-opacity:1;stroke:none" />
      <path
         inkscape:connector-curvature="0"
         id="path3889"
         d="m 374.12297,746.36218 0,18 15.58846,9 0,-18 z"
         style="fill:#767113;fill-opacity:0.83555555;stroke:none" />
      <path
         style="fill:#009b00;fill-opacity:1;stroke:none"
         d="m 389.71143,737.36218 15.58846,9 -15.58846,9 -15.58846,-9 z"
         id="path3891"
         inkscape:connector-curvature="0" />
      <path
         style="fill:#76612d;fill-opacity:1;stroke:none"
         d="m 389.71143,755.36218 0,18 15.58846,-9 0,-18 z"
         id="path3893"
         inkscape:connector-curvature="0" />
      <path
         style="fill:#766813;fill-opacity:1;stroke:none"
         d="m 374.12297,746.36218 0,18 15.58846,9 0,-18 z"
         id="path3895"
         inkscape:connector-curvature="0" />
    </g>
    <g
       id="g3931"
       transform="translate(-2.8332423e-6,-18)">
      <path
         style="fill:#766c22;fill-opacity:1;stroke:none"
         d="m 358.53452,809.36218 0,18 15.58846,-9 0,-18 z"
         id="path3915"
         inkscape:connector-curvature="0" />
      <path
         sodipodi:nodetypes="ccccc"
         inkscape:connector-curvature="0"
         id="path3919"
         d="m 358.53452,791.36218 15.58846,9 -15.58846,27 -15.58846,-9 z"
         style="fill:#009b00;fill-opacity:1;stroke:none" />
      <path
         sodipodi:nodetypes="ccccc"
         inkscape:connector-curvature="0"
         id="path3921"
         d="m 374.12297,800.36218 -15.58845,27 15.58846,-9 0,-18 z"
         style="fill:#76612d;fill-opacity:1;stroke:none" />
    </g>
    <g
       transform="translate(-7.7942315,-88.5)"
       id="g3936"
       inkscape:export-xdpi="90"
       inkscape:export-ydpi="90">
      <path
         inkscape:connector-curvature="0"
         id="path3938"
         d="m 358.53452,809.36218 0,18 15.58846,-9 0,-18 z"
         style="fill:#766c22;fill-opacity:1;stroke:none" />
      <path
         style="fill:#009b00;fill-opacity:1;stroke:none"
         d="m 358.53452,791.36218 15.58846,9 -15.58846,27 -15.58846,-9 z"
         id="path3940"
         inkscape:connector-curvature="0"
         sodipodi:nodetypes="ccccc" />
      <path
         style="fill:#76612d;fill-opacity:1;stroke:none"
         d="m 374.12297,800.36218 -15.58845,27 15.58846,-9 0,-18 z"
         id="path3942"
         inkscape:connector-curvature="0"
         sodipodi:nodetypes="ccccc" />
    </g>
    <path
       inkscape:connector-curvature="0"
       id="path3974"
       d="m 420.88835,791.36218 0,18 -15.58846,-9 0,-18 z"
       style="fill:#766c22;fill-opacity:1;stroke:none" />
    <g
       id="g3983"
       transform="translate(31.176916,54)">
      <path
         style="fill:#00c200;fill-opacity:1;stroke:none"
         d="m 389.71143,737.36218 15.58846,9 -15.58846,9 -15.58846,-9 z"
         id="path3985"
         inkscape:connector-curvature="0" />
      <path
         style="fill:#766c22;fill-opacity:1;stroke:none"
         d="m 389.71143,755.36218 0,18 15.58846,-9 0,-18 z"
         id="path3987"
         inkscape:connector-curvature="0" />
      <path
         style="fill:#767113;fill-opacity:0.83555555;stroke:none"
         d="m 374.12297,746.36218 0,18 15.58846,9 0,-18 z"
         id="path3989"
         inkscape:connector-curvature="0" />
      <path
         inkscape:connector-curvature="0"
         id="path3991"
         d="m 389.71143,737.36218 15.58846,9 -15.58846,9 -15.58846,-9 z"
         style="fill:#009b00;fill-opacity:1;stroke:none" />
      <path
         inkscape:connector-curvature="0"
         id="path3993"
         d="m 389.71143,755.36218 0,18 15.58846,-9 0,-18 z"
         style="fill:#76612d;fill-opacity:1;stroke:none" />
      <path
         inkscape:connector-curvature="0"
         id="path3995"
         d="m 374.12297,746.36218 0,18 15.58846,9 0,-18 z"
         style="fill:#766813;fill-opacity:1;stroke:none" />
    </g>
    <g
       id="g4011">
      <path
         sodipodi:nodetypes="ccccc"
         inkscape:connector-curvature="0"
         id="path3976"
         d="m 420.88835,773.36218 -15.58846,9 15.58846,27 15.58846,-9 z"
         style="fill:#008a00;fill-opacity:1;stroke:none" />
      <path
         sodipodi:nodetypes="ccccc"
         inkscape:connector-curvature="0"
         id="path3978"
         d="m 405.2999,782.36218 15.58845,27 -15.58846,-9 0,-18 z"
         style="fill:#766813;fill-opacity:1;stroke:none" />
    </g>
    <g
       transform="translate(46.765374,63)"
       id="g3997">
      <path
         inkscape:connector-curvature="0"
         id="path3999"
         d="m 389.71143,737.36218 15.58846,9 -15.58846,9 -15.58846,-9 z"
         style="fill:#00c200;fill-opacity:1;stroke:none" />
      <path
         inkscape:connector-curvature="0"
         id="path4001"
         d="m 389.71143,755.36218 0,18 15.58846,-9 0,-18 z"
         style="fill:#766c22;fill-opacity:1;stroke:none" />
      <path
         inkscape:connector-curvature="0"
         id="path4003"
         d="m 374.12297,746.36218 0,18 15.58846,9 0,-18 z"
         style="fill:#767113;fill-opacity:0.83555555;stroke:none" />
      <path
         style="fill:#009b00;fill-opacity:1;stroke:none"
         d="m 389.71143,737.36218 15.58846,9 -15.58846,9 -15.58846,-9 z"
         id="path4005"
         inkscape:connector-curvature="0" />
      <path
         style="fill:#76612d;fill-opacity:1;stroke:none"
         d="m 389.71143,755.36218 0,18 15.58846,-9 0,-18 z"
         id="path4007"
         inkscape:connector-curvature="0" />
      <path
         style="fill:#766813;fill-opacity:1;stroke:none"
         d="m 374.12297,746.36218 0,18 15.58846,9 0,-18 z"
         id="path4009"
         inkscape:connector-curvature="0" />
    </g>
    <g
       id="g4015"
       transform="translate(64.951904,13.5)"
       inkscape:export-xdpi="90"
       inkscape:export-ydpi="90">
      <path
         style="fill:#008a00;fill-opacity:1;stroke:none"
         d="m 420.88835,773.36218 -15.58846,9 15.58846,27 15.58846,-9 z"
         id="path4017"
         inkscape:connector-curvature="0"
         sodipodi:nodetypes="ccccc" />
      <path
         style="fill:#766813;fill-opacity:1;stroke:none"
         d="m 405.2999,782.36218 15.58845,27 -15.58846,-9 0,-18 z"
         id="path4019"
         inkscape:connector-curvature="0"
         sodipodi:nodetypes="ccccc" />
    </g>
    <g
       id="g4021"
       transform="translate(49.363452,-19.5)"
       inkscape:export-xdpi="90"
       inkscape:export-ydpi="90">
      <path
         style="fill:#00c200;fill-opacity:1;stroke:none"
         d="m 389.71143,737.36218 15.58846,9 -15.58846,9 -15.58846,-9 z"
         id="path4023"
         inkscape:connector-curvature="0" />
      <path
         style="fill:#766c22;fill-opacity:1;stroke:none"
         d="m 389.71143,755.36218 0,18 15.58846,-9 0,-18 z"
         id="path4025"
         inkscape:connector-curvature="0" />
      <path
         style="fill:#767113;fill-opacity:0.83555555;stroke:none"
         d="m 374.12297,746.36218 0,18 15.58846,9 0,-18 z"
         id="path4027"
         inkscape:connector-curvature="0" />
      <path
         inkscape:connector-curvature="0"
         id="path4029"
         d="m 389.71143,737.36218 15.58846,9 -15.58846,9 -15.58846,-9 z"
         style="fill:#009b00;fill-opacity:1;stroke:none" />
      <path
         inkscape:connector-curvature="0"
         id="path4031"
         d="m 389.71143,755.36218 0,18 15.58846,-9 0,-18 z"
         style="fill:#76612d;fill-opacity:1;stroke:none" />
      <path
         inkscape:connector-curvature="0"
         id="path4033"
         d="m 374.12297,746.36218 0,18 15.58846,9 0,-18 z"
         style="fill:#766813;fill-opacity:1;stroke:none" />
    </g>
  </g>
</svg>
